<svg xmlns="http://www.w3.org/2000/svg" width="1em" height="1em" viewBox="0 0 24 24">
	<path fill="#2e8555" fill-rule="evenodd" d="M14 20.5V4.25c0-.728-.002-1.2-.048-1.546c-.044-.325-.115-.427-.172-.484c-.057-.057-.159-.128-.484-.172C12.949 2.002 12.478 2 11.75 2c-.728 0-1.2.002-1.546.048c-.325.044-.427.115-.484.172c-.057.057-.128.159-.172.484c-.046.347-.048.818-.048 1.546V20.5z" clip-rule="evenodd" />
	<path fill="#2e8555" d="M8 8.75A.75.75 0 0 0 7.25 8h-3a.75.75 0 0 0-.75.75V20.5H8zm12 5a.75.75 0 0 0-.75-.75h-3a.75.75 0 0 0-.75.75v6.75H20z" opacity="0.7" />
	<path fill="#2e8555" d="M1.75 20.5a.75.75 0 0 0 0 1.5h20a.75.75 0 0 0 0-1.5H2z" opacity="0.5" />
</svg>